<svg height="512" viewBox="0 0 64 64" width="512" xmlns="http://www.w3.org/2000/svg"><g id="Filled_outline" data-name="Filled outline"><path d="m12 3h46v50h-46z" fill="#2d75bb"/><path d="m12 3h46v34h-46z" fill="#fcec97"/><path d="m10 53h48a0 0 0 0 1 0 0v8a0 0 0 0 1 0 0h-48a4 4 0 0 1 -4-4 4 4 0 0 1 4-4z" fill="#fcec97"/><path d="m9 56h49v2h-49z" fill="#d3843d"/><path d="m6 57a4 4 0 0 1 4-4h2v-50a6 6 0 0 0 -6 6z" fill="#d3843d"/><path d="m7 23h-2a3.887 3.887 0 0 1 4-4v2a1.882 1.882 0 0 0 -2 2z" fill="#fcec97"/><path d="m7 18h-2a3.887 3.887 0 0 1 4-4v2a1.882 1.882 0 0 0 -2 2z" fill="#fcec97"/><path d="m36 34c-5.932 0-6-8.632-6-9 0-2.854-.74-11-4-11s-4 8.146-4 11h-2c0-1.331.168-13 6-13s6 11.669 6 13c0 .069.06 7 4 7s4-6.93 4-7c0-1.5.193-9 4-9s4 7.5 4 9c0 .048.05 5 3 5v2c-3.955 0-5-4.579-5-7 0-3.311-.824-7-2-7-1.288 0-2 4.139-2 7 0 .368-.068 9-6 9z" fill="#e4544f"/><path d="m18 24h33v2h-33z" fill="#2d75bb"/><path d="m33.333 7.781h2v3.771h-2z" fill="#7fc99d" transform="matrix(.707 -.707 .707 .707 3.221 27.109)"/><path d="m31.964 9.5h7.071v2h-7.071z" fill="#7fc99d" transform="matrix(.707 -.707 .707 .707 2.973 28.178)"/><path d="m40 8h4v2h-4z" fill="#2d75bb"/><path d="m40 12h4v2h-4z" fill="#2d75bb"/><path d="m52 14h-6v-8h2v2h4zm-4-2h2v-2h-2z" fill="#7fc99d"/><path d="m19 28.172h2v5.657h-2z" fill="#7fc99d" transform="matrix(.707 -.707 .707 .707 -16.062 23.222)"/><path d="m17.172 30h5.657v2h-5.657z" fill="#7fc99d" transform="matrix(.707 -.707 .707 .707 -16.062 23.222)"/><g fill="#2d75bb"><path d="m25 28h4v2h-4z"/><path d="m25 32h4v2h-4z"/><path d="m17 6h2v10h-2z"/><path d="m15 8h13v2h-13z"/><path d="m50 20h2v2h-2z"/><path d="m53 16h2v2h-2z"/></g><path d="m20 41h30v8h-30z" fill="#d3843d"/><path d="m15 40h2v2h-2z" fill="#fcec97"/><path d="m15 48h2v2h-2z" fill="#fcec97"/><path d="m53 40h2v2h-2z" fill="#fcec97"/><path d="m53 48h2v2h-2z" fill="#fcec97"/><path d="m58 2h-46a7.008 7.008 0 0 0 -7 7v48a5.006 5.006 0 0 0 5 5h48a1 1 0 0 0 1-1v-58a1 1 0 0 0 -1-1zm-45 36h44v14h-44zm44-34v32h-44v-32zm-50 15.487v-1.487a1.882 1.882 0 0 1 2-2v-2a4.08 4.08 0 0 0 -2 .487v-5.487a5.009 5.009 0 0 1 4-4.9v47.9h-1a4.948 4.948 0 0 0 -3 1.026v-30.026a1.882 1.882 0 0 1 2-2v-2a4.08 4.08 0 0 0 -2 .487zm3 40.513a3 3 0 0 1 0-6h47v2h-48v2h48v2z"/><path d="m26 12c-5.072 0-5.86 8.825-5.979 12h-2.021v2h12.049c.192 2.353 1.152 8 5.951 8s5.759-5.647 5.951-8h4.1c.255 2.5 1.488 6 4.947 6v-2c-2.116 0-2.737-2.542-2.921-4h2.923v-2h-3.024c-.11-2.528-.721-8-3.976-8s-3.866 5.472-3.976 8h-8.045c-.119-3.175-.907-12-5.979-12zm10 20c-3.022 0-3.759-4.069-3.94-6h7.882c-.178 1.931-.909 6-3.942 6zm8-14c1.058 0 1.828 2.989 1.973 6h-3.945c.14-2.735.828-6 1.972-6zm-21.974 6c.147-3.4 1.032-10 3.974-10s3.825 6.6 3.974 10z"/><path d="m33.707 13.707 5-5-1.414-1.414-1.793 1.793-1.793-1.793-1.414 1.414 1.793 1.793-1.793 1.793z"/><path d="m40 8h4v2h-4z"/><path d="m40 12h4v2h-4z"/><path d="m52 8h-4v-2h-2v8h6zm-2 4h-2v-2h2z"/><path d="m21.293 28.293-1.293 1.293-1.293-1.293-1.414 1.414 1.293 1.293-1.293 1.293 1.414 1.414 1.293-1.293 1.293 1.293 1.414-1.414-1.293-1.293 1.293-1.293z"/><path d="m25 28h4v2h-4z"/><path d="m25 32h4v2h-4z"/><path d="m17 16h2v-6h9v-2h-9v-2h-2v2h-2v2h2z"/><path d="m50 20h2v2h-2z"/><path d="m53 16h2v2h-2z"/><path d="m19 50h32v-10h-32zm2-8h28v6h-28z"/><path d="m15 40h2v2h-2z"/><path d="m15 48h2v2h-2z"/><path d="m53 40h2v2h-2z"/><path d="m53 48h2v2h-2z"/></g></svg>