<?xml version="1.0" encoding="iso-8859-1"?>
<!-- Generator: Adobe Illustrator 19.0.0, SVG Export Plug-In . SVG Version: 6.00 Build 0)  -->
<svg version="1.1" id="Capa_1" xmlns="http://www.w3.org/2000/svg" xmlns:xlink="http://www.w3.org/1999/xlink" x="0px" y="0px"
	 viewBox="0 0 512 512" style="enable-background:new 0 0 512 512;" xml:space="preserve">
<path style="fill:#F03C32;" d="M442.298,115.749c-22.11,137.638-98.43,239.117-188.41,238.747V115.749H442.298z"/>
<path style="fill:#4696E6;" d="M253.888,115.749v238.747h-0.5c-90.02,0.39-167.01-101.149-190.05-238.747
	C63.338,115.749,253.888,115.749,253.888,115.749z"/>
<path d="M185.253,430.646c-2.442-1.534-4.688-2.303-6.734-2.303c-2.127,0-3.468,0.867-4.018,2.596l-11.462,35.282l-14.18-35.282
	c-0.552-1.728-2.009-2.596-4.372-2.596c-2.127,0-4.354,0.748-6.676,2.243c-2.325,1.494-3.486,3.186-3.486,5.074
	c0,0.55,0.157,1.22,0.473,2.004l20.324,43.423c-0.396,6.214-2.384,10.66-5.967,13.336c-3.586,2.672-7.229,4.011-10.931,4.011
	c-2.6,0-3.899,2.24-3.899,6.722c0,2.736,0.591,4.56,1.772,5.476c1.182,0.911,2.914,1.368,5.199,1.368c2.6,0,5.002-0.258,7.208-0.773
	c2.204-0.519,4.076-1.113,5.612-1.787c1.536-0.677,3.053-1.747,4.55-3.217c1.495-1.469,2.658-2.699,3.485-3.69
	c0.827-0.995,1.772-2.583,2.836-4.764c1.063-2.185,1.812-3.793,2.245-4.823c0.433-1.034,21.328-55.262,21.328-55.262
	c0.236-0.556,0.354-1.15,0.354-1.787C188.916,433.93,187.694,432.18,185.253,430.646z"/>
<path d="M245.516,438.578H215.03c-1.418,0-2.562,0.588-3.427,1.759c-0.868,1.172-1.3,2.628-1.3,4.368c0,1.814,0.432,3.27,1.3,4.367
	c0.865,1.098,2.009,1.644,3.427,1.644h30.485c1.339,0,2.5-0.566,3.486-1.701c0.983-1.134,1.477-2.569,1.477-4.31
	c0-1.664-0.514-3.102-1.536-4.312C247.918,439.184,246.774,438.578,245.516,438.578z"/>
<path d="M245.516,462.735H215.03c-1.418,0-2.562,0.587-3.427,1.759c-0.868,1.171-1.3,2.627-1.3,4.367c0,1.815,0.432,3.271,1.3,4.368
	c0.865,1.097,2.009,1.644,3.427,1.644h30.485c1.339,0,2.5-0.567,3.486-1.701c0.983-1.134,1.477-2.569,1.477-4.31
	c0-1.664-0.514-3.101-1.536-4.311C247.918,463.34,246.774,462.735,245.516,462.735z"/>
<path d="M308.968,457.023l13.116-18.326c0.63-1.03,0.945-1.863,0.945-2.499c0-1.744-1.182-3.47-3.545-5.177
	c-2.363-1.705-4.531-2.559-6.499-2.559c-1.576,0-2.758,0.596-3.545,1.785l-10.871,17.255l-10.753-17.374
	c-0.709-1.109-1.852-1.666-3.426-1.666c-2.05,0-4.254,0.854-6.617,2.559c-2.363,1.707-3.545,3.433-3.545,5.177
	c0,0.794,0.313,1.627,0.945,2.499l12.997,18.207l-13.942,19.635c-0.632,0.794-0.945,1.666-0.945,2.618
	c0,1.666,1.182,3.353,3.545,5.058c2.363,1.705,4.41,2.559,6.145,2.559c1.731,0,2.992-0.557,3.78-1.666l11.816-18.088l11.935,18.088
	c0.787,1.109,1.968,1.666,3.545,1.666c2.048,0,4.213-0.853,6.499-2.559c2.284-1.705,3.427-3.392,3.427-5.058
	c0-1.11-0.315-1.982-0.945-2.618L308.968,457.023z"/>
<path d="M363.481,445.762h-15.474v-1.352c0-1.052,0.604-2.159,1.812-3.323c1.209-1.164,2.675-2.327,4.4-3.492
	c1.725-1.164,3.458-2.432,5.201-3.803c1.743-1.37,3.218-3.041,4.423-5.013c1.205-1.971,1.809-4.083,1.809-6.337
	c0-3.371-1.233-6.073-3.698-8.107c-2.466-2.033-5.386-3.051-8.76-3.051c-3.195,0-5.969,0.95-8.319,2.851
	c-2.351,1.899-3.525,4.377-3.525,7.432c0,2.607,1.074,3.911,3.223,3.911c1.129,0,2.029-0.277,2.703-0.834
	c0.673-0.556,1.01-1.198,1.01-1.927c0-1.686,0.465-2.953,1.395-3.796c0.93-0.844,2.12-1.267,3.57-1.267
	c1.711,0,3.003,0.508,3.877,1.521c0.874,1.015,1.313,2.179,1.313,3.492c0,1.465-0.614,2.93-1.842,4.394
	c-1.228,1.465-2.716,2.854-4.463,4.168l-5.324,3.887c-1.592,1.311-2.946,2.77-4.063,4.38c-1.117,1.61-1.676,3.239-1.676,4.886v5.447
	c0,0.637,0.344,1.18,1.033,1.629c0.688,0.449,1.378,0.674,2.066,0.674h19.361c0.58,0,1.097-0.325,1.55-0.978
	c0.453-0.651,0.68-1.406,0.68-2.264c0-0.856-0.232-1.593-0.695-2.207C364.604,446.07,364.074,445.762,363.481,445.762z"/>
<path d="M505.256,348.7l-18.866-19c-3.89-3.919-10.223-3.941-14.142-0.05c-3.919,3.892-3.941,10.223-0.05,14.142l1.94,1.954H322.486
	c0.344-0.196,0.69-0.382,1.034-0.582c21.03-12.187,40.578-29.814,58.103-52.39c34.447-44.377,59.501-106.678,70.546-175.428
	c0.001-0.005,0.002-0.009,0.003-0.014c2.146-13.382,3.789-27.104,4.884-40.784c1.005-12.531,1.57-25.434,1.682-38.365
	c0.061-8.178-0.06-16.477-0.356-24.666c-0.195-5.396-4.631-9.638-9.986-9.638c-0.123,0-0.246,0.002-0.369,0.006
	c-5.52,0.2-9.831,4.837-9.631,10.356c0.286,7.9,0.401,15.905,0.343,23.781c-0.106,12.445-0.65,24.869-1.617,36.928
	c-0.824,10.305-1.983,20.625-3.433,30.798H263.396v-20h9.859c5.522,0,10-4.477,10-10s-4.478-10-10-10h-9.859V34.066l2.11,2.071
	c3.942,3.869,10.273,3.808,14.142-0.134s3.809-10.273-0.134-14.141l-19.362-19c-3.925-3.851-10.224-3.811-14.1,0.091l-18.867,19
	c-3.892,3.919-3.869,10.25,0.05,14.142c1.95,1.937,4.498,2.904,7.046,2.904c2.57,0,5.142-0.985,7.096-2.954l2.02-2.034v71.736
	h-171.5c-1.522-10.216-2.753-20.559-3.646-30.863c-0.478-5.503-5.349-9.579-10.826-9.099c-5.503,0.477-9.576,5.324-9.1,10.827
	c1.183,13.643,2.915,27.362,5.149,40.778c0.001,0.004,0.002,0.007,0.002,0.011c11.509,68.734,36.974,131.021,71.702,175.388
	c17.668,22.572,37.326,40.194,58.427,52.378c0.343,0.198,0.688,0.383,1.032,0.578H13.84c-5.522,0-10,4.477-10,10
	c0,0.028,0.165,20.082,0.165,20.082c0.046,5.495,4.514,9.917,9.998,9.917c0.028,0,0.057,0,0.085,0
	c5.522-0.045,9.962-4.56,9.917-10.082l-0.082-9.917h20.033v10c0,5.523,4.478,10,10,10s10-4.477,10-10v-10h19.718v10
	c0,5.523,4.478,10,10,10s10-4.477,10-10v-10h19.719v10c0,5.523,4.478,10,10,10c5.522,0,10-4.477,10-10v-10h20.563v10
	c0,5.523,4.478,10,10,10s10-4.477,10-10v-10h19.718v10c0,5.523,4.478,10,10,10s10-4.477,10-10v-10h19.722v30c0,5.523,4.478,10,10,10
	c5.522,0,10-4.477,10-10v-30h19.716v10c0,5.523,4.478,10,10,10s10-4.477,10-10v-10h19.718v10c0,5.523,4.478,10,10,10s10-4.477,10-10
	v-10h19.719v10c0,5.523,4.478,10,10,10s10-4.477,10-10v-10h19.719v10c0,5.523,4.478,10,10,10s10-4.477,10-10v-10h20v10
	c0,5.523,4.478,10,10,10s10-4.477,10-10v-10h12.305l-2.464,2.547c-3.841,3.969-3.736,10.3,0.233,14.14
	c1.941,1.878,4.448,2.813,6.952,2.813c2.614,0,5.227-1.019,7.188-3.047l18.866-19.5C509.133,358.786,509.093,352.563,505.256,348.7z
	 M243.396,344.083c-36.998-3.183-72.245-25.01-102.469-63.621c-30.756-39.292-53.858-93.877-65.625-154.714h168.094V344.083z
	 M263.888,344.087l-0.492,0.256v-18.597h9.859c5.522,0,10-4.477,10-10s-4.478-10-10-10h-9.859v-20h9.859c5.522,0,10-4.477,10-10
	s-4.478-10-10-10h-9.859v-20h9.859c5.522,0,10-4.477,10-10s-4.478-10-10-10h-9.859v-20h9.859c5.522,0,10-4.477,10-10
	s-4.478-10-10-10h-9.859v-20h9.859c5.522,0,10-4.477,10-10s-4.478-10-10-10h-9.859V125.5l0.492,0.246h166.526
	c-11.349,60.859-34.087,115.467-64.59,154.762C335.89,319.075,300.825,340.891,263.888,344.087z"/>
<path d="M58.287,45.749c2.63,0,5.21-1.07,7.07-2.93s2.93-4.44,2.93-7.07s-1.069-5.21-2.93-7.07c-1.86-1.86-4.44-2.93-7.07-2.93
	s-5.21,1.07-7.069,2.93c-1.86,1.86-2.931,4.44-2.931,7.07s1.07,5.21,2.931,7.07C53.077,44.679,55.657,45.749,58.287,45.749z"/>
<g>
</g>
<g>
</g>
<g>
</g>
<g>
</g>
<g>
</g>
<g>
</g>
<g>
</g>
<g>
</g>
<g>
</g>
<g>
</g>
<g>
</g>
<g>
</g>
<g>
</g>
<g>
</g>
<g>
</g>
</svg>
