<?xml version="1.0" encoding="iso-8859-1"?>
<!-- Generator: Adobe Illustrator 19.0.0, SVG Export Plug-In . SVG Version: 6.00 Build 0)  -->
<svg version="1.1" id="Capa_1" xmlns="http://www.w3.org/2000/svg" xmlns:xlink="http://www.w3.org/1999/xlink" x="0px" y="0px"
	 viewBox="0 0 512.001 512.001" style="enable-background:new 0 0 512.001 512.001;" xml:space="preserve">
<path style="fill:#EE8700;" d="M268.245,482.44h-32.441c-5.017,0-9.084-4.067-9.084-9.084v-154.42h50.608v154.42
	C277.328,478.373,273.261,482.44,268.245,482.44z"/>
<rect x="226.721" y="318.94" style="fill:#CC7400;" width="50.608" height="73.06"/>
<g>
	<path style="fill:#FF9811;" d="M198.022,16.341l-71.449,476.238c-0.942,6.277,3.919,11.921,10.266,11.921h26.244
		c5.139,0,9.504-3.759,10.266-8.841l71.449-476.238c0.941-6.276-3.92-11.921-10.267-11.921h-26.244
		C203.149,7.5,198.784,11.259,198.022,16.341z"/>
	<path style="fill:#FF9811;" d="M303.714,7.5h-26.243c-6.347,0-11.208,5.645-10.266,11.921l71.449,476.238
		c0.762,5.082,5.128,8.841,10.266,8.841h26.243c6.347,0,11.208-5.645,10.266-11.921L313.98,16.341
		C313.218,11.259,308.853,7.5,303.714,7.5z"/>
</g>
<g>
	<polygon style="fill:#EE8700;" points="323.101,392 370.34,392 356.262,298.169 309.024,298.169 	"/>
	<polygon style="fill:#EE8700;" points="141.662,392 188.9,392 202.978,298.169 155.739,298.169 	"/>
</g>
<path style="fill:#FFC477;" d="M433.12,342.526H78.882c-17.2,0-31.144-13.943-31.144-31.144V83.303
	c0-17.2,13.943-31.144,31.144-31.144H433.12c17.2,0,31.144,13.943,31.144,31.144v228.08
	C464.263,328.582,450.32,342.526,433.12,342.526z"/>
<path style="fill:#FFB655;" d="M174.882,116.654c20.408-26.768,44.978-48.362,71.936-64.495H78.882
	c-17.2,0-31.144,13.943-31.144,31.144v228.079c0,17.2,13.944,31.144,31.144,31.144h55.266
	C110.52,269.678,123.047,184.645,174.882,116.654z"/>
<path style="fill:#4E901E;" d="M78.882,316.573c-2.863,0-5.191-2.329-5.191-5.191V83.303c0-2.862,2.328-5.191,5.191-5.191H433.12
	c2.863,0,5.191,2.329,5.191,5.191v228.079c0,2.862-2.328,5.191-5.191,5.191H78.882z"/>
<path style="fill:#47821C;" d="M174.882,116.654c10.944-14.355,23.094-27.207,36.158-38.542H78.882
	c-2.863,0-5.191,2.329-5.191,5.191v228.079c0,2.862,2.328,5.191,5.191,5.191h48.469C113.975,250.065,129.096,176.71,174.882,116.654
	z"/>
<path style="fill:#FFB655;" d="M336.022,354.416H175.979c-5.733,0-10.381-4.648-10.381-10.381v-38.508
	c0-5.733,4.648-10.381,10.381-10.381h160.044c5.733,0,10.381,4.648,10.381,10.381v38.508
	C346.404,349.768,341.756,354.416,336.022,354.416z"/>
<path style="fill:#FFA733;" d="M211.041,344.035v-38.508c0-5.733,4.648-10.381,10.381-10.381h-45.443
	c-5.733,0-10.381,4.648-10.381,10.381v38.508c0,5.733,4.648,10.381,10.381,10.381h45.443
	C215.689,354.416,211.041,349.768,211.041,344.035z"/>
<path style="fill:#FFFFFF;" d="M167.915,191.346h-25.293c-3.014,0-5.734-1.804-6.908-4.58s-0.571-5.984,1.528-8.146l10.805-11.123
	c0.025-0.026,0.051-0.052,0.077-0.077c5.032-5.076,8.939-12.359,7.73-14.42c-0.384-0.655-0.627-0.717-0.822-0.768
	c-1.623-0.417-4.94,0.798-6.614,1.798c-3.527,2.173-8.128,1.058-10.298-2.469c-2.171-3.528-1.05-8.16,2.478-10.331
	c1.556-0.958,9.742-5.629,18.055-3.555c4.296,1.072,7.804,3.748,10.144,7.738c6.938,11.837-4.019,25.948-8.484,30.932h7.604
	c4.143,0,7.5,3.358,7.5,7.5S172.058,191.346,167.915,191.346z"/>
<g>
	<path style="fill:#DCF4CA;" d="M137.242,178.62c-2.1,2.162-2.702,5.371-1.528,8.146c0.197,0.467,0.452,0.894,0.731,1.302
		c1.656-4.773,3.475-9.514,5.434-14.221L137.242,178.62z"/>
	<path style="fill:#DCF4CA;" d="M158.653,137.676c-8.313-2.074-16.499,2.597-18.055,3.555c-3.527,2.171-4.648,6.803-2.478,10.331
		c2.17,3.527,6.771,4.643,10.298,2.469c0.874-0.522,2.194-1.097,3.489-1.473c2.576-4.866,5.331-9.675,8.253-14.425
		C159.669,137.959,159.167,137.805,158.653,137.676z"/>
</g>
<g>
	<path style="fill:#FFFFFF;" d="M264.915,191.346h-25.293c-3.014,0-5.734-1.804-6.908-4.58s-0.571-5.984,1.528-8.146l10.805-11.123
		c0.025-0.026,0.051-0.052,0.077-0.077c5.032-5.076,8.939-12.359,7.73-14.42c-0.384-0.655-0.627-0.717-0.822-0.768
		c-1.623-0.417-4.94,0.798-6.614,1.798c-3.527,2.173-8.128,1.058-10.298-2.469c-2.171-3.528-1.05-8.16,2.478-10.331
		c1.556-0.958,9.742-5.629,18.055-3.555c4.296,1.072,7.804,3.748,10.144,7.738c6.938,11.837-4.019,25.948-8.484,30.932h7.604
		c4.143,0,7.5,3.358,7.5,7.5S269.058,191.346,264.915,191.346z"/>
	<path style="fill:#FFFFFF;" d="M216.269,163.846h-5v-5c0-4.142-3.357-7.5-7.5-7.5s-7.5,3.358-7.5,7.5v5h-5
		c-4.142,0-7.5,3.357-7.5,7.5s3.358,7.5,7.5,7.5h5v5c0,4.142,3.357,7.5,7.5,7.5s7.5-3.358,7.5-7.5v-5h5c4.142,0,7.5-3.357,7.5-7.5
		S220.411,163.846,216.269,163.846z"/>
	<path style="fill:#FFFFFF;" d="M313.765,163h-19.181c-4.143,0-7.5-3.358-7.5-7.5s3.357-7.5,7.5-7.5h19.181
		c4.143,0,7.5,3.358,7.5,7.5S317.908,163,313.765,163z"/>
	<path style="fill:#FFFFFF;" d="M313.765,187h-19.181c-4.143,0-7.5-3.358-7.5-7.5s3.357-7.5,7.5-7.5h19.181
		c4.143,0,7.5,3.358,7.5,7.5S317.908,187,313.765,187z"/>
	<path style="fill:#FFFFFF;" d="M369.379,159.346h-1.295v-8.654c0-4.142-3.357-7.5-7.5-7.5s-7.5,3.358-7.5,7.5v8.654h-4.705v-14.5
		c0-4.142-3.357-7.5-7.5-7.5s-7.5,3.358-7.5,7.5v22c0,4.142,3.357,7.5,7.5,7.5h12.205v9.5c0,4.142,3.357,7.5,7.5,7.5
		s7.5-3.358,7.5-7.5v-9.5h1.295c4.143,0,7.5-3.358,7.5-7.5S373.522,159.346,369.379,159.346z"/>
</g>
<path d="M433.12,44.659h-32.869c-4.143,0-7.5,3.358-7.5,7.5s3.357,7.5,7.5,7.5h32.869c13.037,0,23.644,10.606,23.644,23.644v228.08
	c0,13.037-10.606,23.644-23.644,23.644h-79.217v-10.953h79.217c6.997,0,12.69-5.693,12.69-12.691V83.303
	c0-6.998-5.693-12.69-12.69-12.69H78.882c-6.997,0-12.69,5.693-12.69,12.69v228.079c0,6.998,5.693,12.691,12.69,12.691h79.216
	v10.953H78.882c-13.037,0-23.644-10.606-23.644-23.644V83.303c0-13.037,10.606-23.644,23.644-23.644h288.869
	c4.143,0,7.5-3.358,7.5-7.5s-3.357-7.5-7.5-7.5h-41.938l-4.416-29.432C320.073,6.404,312.636,0,303.714,0h-26.243
	c-5.211,0-10.149,2.265-13.55,6.213c-3.399,3.948-4.906,9.168-4.134,14.321l3.619,24.125h-14.811l3.62-24.125
	c0.772-5.153-0.734-10.373-4.134-14.321C244.681,2.265,239.742,0,234.531,0h-26.243c-8.922,0-16.359,6.404-17.684,15.228
	l-4.416,29.431H78.882c-21.309,0-38.644,17.335-38.644,38.644v228.08c0,21.308,17.335,38.644,38.644,38.644h61.494l-11.16,74.382
	c-0.614,4.096,2.208,7.915,6.304,8.53c0.378,0.057,7.302,1.337,8.53-6.304l11.494-76.607h3.608
	c2.471,6.917,9.071,11.89,16.826,11.89h9.851l-19.898,132.63c-0.213,1.422-1.412,2.454-2.85,2.454h-26.243
	c-2.867,0.062-3.021-2.172-2.85-3.309l4.993-33.282c0.614-4.096-2.208-7.915-6.305-8.53c-4.088-0.615-7.915,2.207-8.529,6.304
	l-4.993,33.282c-0.772,5.153,0.734,10.373,4.135,14.321c3.399,3.948,8.338,6.213,13.549,6.213h26.243
	c8.922,0,16.359-6.404,17.684-15.228l20.232-134.856h18.222v111.44c0,9.144,7.439,16.583,16.584,16.583h32.441
	c9.144,0,16.583-7.439,16.583-16.583v-111.44h26.176l20.232,134.856c1.324,8.823,8.762,15.228,17.684,15.228h26.243
	c5.211,0,10.149-2.265,13.549-6.213c3.4-3.948,4.907-9.168,4.135-14.321l-21.22-141.44h61.494c21.309,0,38.644-17.335,38.644-38.644
	V83.303C471.764,61.995,454.429,44.659,433.12,44.659z M274.621,18.309c-0.171-1.137-0.298-3.161,2.85-3.309h26.243
	c1.438,0,2.637,1.032,2.85,2.454l4.082,27.206h-32.071L274.621,18.309z M205.439,17.454c0.213-1.422,1.412-2.454,2.85-2.454h26.243
	c3.187-0.007,3.021,2.172,2.85,3.309l-3.954,26.351h-32.071L205.439,17.454z M173.098,344.035v-38.508
	c0-1.588,1.292-2.881,2.881-2.881h101.35c4.143,0,7.5-3.358,7.5-7.5s-3.357-7.5-7.5-7.5h-101.35
	c-9.859,0-17.881,8.021-17.881,17.881v3.546H81.191V85.612h349.62v223.46h-76.907v-3.546c0-9.859-8.021-17.881-17.881-17.881
	h-26.999c-4.143,0-7.5,3.358-7.5,7.5s3.357,7.5,7.5,7.5h26.999c1.589,0,2.881,1.292,2.881,2.881v38.508
	c0,1.589-1.292,2.881-2.881,2.881H175.979C174.39,346.916,173.098,345.624,173.098,344.035z M269.828,473.356
	c0,0.873-0.71,1.583-1.583,1.583h-32.441c-0.873,0-1.584-0.71-1.584-1.583v-111.44h35.608L269.828,473.356L269.828,473.356z
	 M378.013,493.691c0.171,1.137,0.158,3.266-2.85,3.309H348.92c-1.438,0-2.637-1.032-2.85-2.454l-19.898-132.63h9.85
	c7.756,0,14.355-4.973,16.826-11.89h3.609L378.013,493.691z"/>
<g>
</g>
<g>
</g>
<g>
</g>
<g>
</g>
<g>
</g>
<g>
</g>
<g>
</g>
<g>
</g>
<g>
</g>
<g>
</g>
<g>
</g>
<g>
</g>
<g>
</g>
<g>
</g>
<g>
</g>
</svg>
